<svg width="24" height="24" viewBox="0 0 24 24" fill="none" xmlns="http://www.w3.org/2000/svg">
<rect width="24" height="24" fill="#E5E5E5"/>
<g id="SaaS Landing page" clip-path="url(#clip0_0_1)">
<rect width="1440" height="8140" transform="translate(-205 -5477)" fill="white"/>
<g id="Always online">
<rect id="bg" x="-205" y="-317" width="1440" height="900" fill="#FFFAF8"/>
<g id="Cards">
<g id="Card 1">
<rect id="bg_2" x="-39.5" y="-40.5" width="349" height="499" rx="11.5" fill="white" stroke="#F5F5F5"/>
<g id="Group 3">
<g id="Icons">
<g id="ic:baseline-card-travel">
<path id="Vector" d="M20 6H17V4C17 2.89 16.11 2 15 2H9C7.89 2 7 2.89 7 4V6H4C2.89 6 2 6.89 2 8V19C2 20.11 2.89 21 4 21H20C21.11 21 22 20.11 22 19V8C22 6.89 21.11 6 20 6ZM9 4H15V6H9V4ZM20 19H4V17H20V19ZM20 14H4V8H7V10H9V8H15V10H17V8H20V14Z" fill="#3EC1F3"/>
</g>
</g>
</g>
</g>
</g>
</g>
</g>
<defs>
<clipPath id="clip0_0_1">
<rect width="1440" height="8140" fill="white" transform="translate(-205 -5477)"/>
</clipPath>
</defs>
</svg>
